<svg width="16" height="16" viewBox="0 0 16 16" fill="none" xmlns="http://www.w3.org/2000/svg">
<path d="M8.00005 13.2C10.8719 13.2 13.2 10.8719 13.2 8.00005C13.2 5.12817 10.8719 2.80005 8.00005 2.80005C5.12817 2.80005 2.80005 5.12817 2.80005 8.00005C2.80005 9.31196 3.28588 10.5104 4.08744 11.4253L3.20005 13.2L8.00005 13.2Z" fill="#C2CCDE" fill-opacity="0.25"/>
<path d="M7.90005 4.80005V9.28005M7.90005 10.72V11.04M13.2 8.00005C13.2 10.8719 10.8719 13.2 8.00005 13.2L3.20005 13.2L4.08743 11.4253C3.28588 10.5104 2.80005 9.31196 2.80005 8.00005C2.80005 5.12817 5.12817 2.80005 8.00005 2.80005C10.8719 2.80005 13.2 5.12817 13.2 8.00005Z" stroke="#414141" stroke-linecap="round" stroke-linejoin="round"/>
</svg>
