<svg width="16" height="16" viewBox="0 0 16 16" fill="none" xmlns="http://www.w3.org/2000/svg">
<path d="M7.9999 2.3999L8.6269 2.43511L9.24602 2.54031L9.84947 2.71416L10.4297 2.95448L10.9793 3.25825L11.4914 3.62165L11.9597 4.0401L12.3782 4.50836L12.7416 5.02052L13.0453 5.57015L13.2856 6.15034L13.4595 6.75379L13.5647 7.3729L13.5999 7.9999L13.5647 8.6269L13.4595 9.24602L13.2856 9.84947L13.0453 10.4297L12.7416 10.9793L12.3782 11.4914L11.9597 11.9597L11.4914 12.3782L10.9793 12.7416L10.4297 13.0453L9.84947 13.2856L9.24602 13.4595L8.6269 13.5647L7.9999 13.5999L7.3729 13.5647L6.75379 13.4595L6.15034 13.2856L5.57015 13.0453L5.02052 12.7416L4.50836 12.3782L4.0401 11.9597L3.62165 11.4914L3.25825 10.9793L2.95448 10.4297L2.71416 9.84947L2.54031 9.24602L2.43511 8.6269L2.3999 7.9999L2.43511 7.3729L2.54031 6.75379L2.71416 6.15034L2.95448 5.57015L3.25825 5.02052L3.62165 4.50836L4.0401 4.0401L4.50836 3.62165L5.02052 3.25825L5.57015 2.95448L6.15034 2.71416L6.75379 2.54031L7.3729 2.43511L7.9999 2.3999Z" fill="#C2CCDE" fill-opacity="0.25"/>
<path d="M7.9999 9.2799V9.20384C7.9999 8.73712 8.24584 8.30494 8.64709 8.06655L8.99491 7.8599C9.494 7.56339 9.7999 7.02583 9.7999 6.44531C9.7999 5.53658 9.06323 4.7999 8.15449 4.7999H7.9999C7.00579 4.7999 6.1999 5.60579 6.1999 6.5999V6.70154M7.9999 10.7199V11.0399M7.9999 2.3999L8.6269 2.43511L9.24602 2.54031L9.84947 2.71416L10.4297 2.95448L10.9793 3.25825L11.4914 3.62165L11.9597 4.0401L12.3782 4.50836L12.7416 5.02052L13.0453 5.57015L13.2856 6.15034L13.4595 6.75379L13.5647 7.3729L13.5999 7.9999L13.5647 8.6269L13.4595 9.24602L13.2856 9.84947L13.0453 10.4297L12.7416 10.9793L12.3782 11.4914L11.9597 11.9597L11.4914 12.3782L10.9793 12.7416L10.4297 13.0453L9.84947 13.2856L9.24602 13.4595L8.6269 13.5647L7.9999 13.5999L7.3729 13.5647L6.75379 13.4595L6.15034 13.2856L5.57015 13.0453L5.02052 12.7416L4.50836 12.3782L4.0401 11.9597L3.62165 11.4914L3.25825 10.9793L2.95448 10.4297L2.71416 9.84947L2.54031 9.24602L2.43511 8.6269L2.3999 7.9999L2.43511 7.3729L2.54031 6.75379L2.71416 6.15034L2.95448 5.57015L3.25825 5.02052L3.62165 4.50836L4.0401 4.0401L4.50836 3.62165L5.02052 3.25825L5.57015 2.95448L6.15034 2.71416L6.75379 2.54031L7.3729 2.43511L7.9999 2.3999Z" stroke="#414141" stroke-linecap="round" stroke-linejoin="round"/>
</svg>
