<svg width="16" height="16" viewBox="0 0 16 16" fill="none" xmlns="http://www.w3.org/2000/svg">
<path d="M3.6001 3.1999C3.6001 2.75807 3.95827 2.3999 4.4001 2.3999H11.6001C12.0419 2.3999 12.4001 2.75807 12.4001 3.1999V12.7999C12.4001 13.2417 12.0419 13.5999 11.6001 13.5999H4.4001C3.95827 13.5999 3.6001 13.2417 3.6001 12.7999V3.1999Z" fill="#C2CCDE" fill-opacity="0.25"/>
<path d="M5.6001 4.7999H10.4001M5.6001 6.3999H8.8001M5.6001 7.9999H10.4001M5.6001 9.5999H8.8001M5.6001 11.1999H10.4001M4.4001 13.5999H11.6001C12.0419 13.5999 12.4001 13.2417 12.4001 12.7999V3.1999C12.4001 2.75807 12.0419 2.3999 11.6001 2.3999H4.4001C3.95827 2.3999 3.6001 2.75807 3.6001 3.1999V12.7999C3.6001 13.2417 3.95827 13.5999 4.4001 13.5999Z" stroke="#414141" stroke-linecap="round" stroke-linejoin="round"/>
</svg>
