<svg width="24" height="24" viewBox="0 0 24 24" fill="none" xmlns="http://www.w3.org/2000/svg">
<path d="M7.8001 21.5999C7.13736 21.5999 6.6001 21.0626 6.6001 20.3999L6.6001 5.99991C6.6001 5.33716 7.13736 4.79991 7.8001 4.79991L16.2001 4.7999C16.8628 4.7999 17.4001 5.33716 17.4001 5.9999L17.4001 20.3999C17.4001 21.0626 16.8628 21.5999 16.2001 21.5999H7.8001Z" fill="#C2CCDE" fill-opacity="0.25"/>
<path d="M14.4001 2.3999L9.60009 2.3999M10.2001 16.1999L13.8001 13.1999L10.2001 13.1999L13.8001 10.1999M17.4001 20.3999L17.4001 5.9999C17.4001 5.33716 16.8628 4.7999 16.2001 4.7999L7.8001 4.79991C7.13736 4.79991 6.6001 5.33716 6.6001 5.99991L6.6001 20.3999C6.6001 21.0626 7.13736 21.5999 7.8001 21.5999H16.2001C16.8628 21.5999 17.4001 21.0626 17.4001 20.3999Z" stroke="#414141" stroke-linecap="round" stroke-linejoin="round"/>
</svg>
