<svg width="16" height="16" viewBox="0 0 16 16" fill="none" xmlns="http://www.w3.org/2000/svg">
<path d="M4.99345 7.86138C4.91852 8.21792 4.68809 8.52229 4.36525 8.69114C4.01123 8.8763 3.58897 8.8763 3.23495 8.69114C2.9121 8.52229 2.68167 8.21792 2.60674 7.86138L2.58076 7.73776C2.50364 7.3708 2.5864 6.98837 2.80833 6.68613L2.85041 6.62882C3.07239 6.32651 3.42504 6.14795 3.8001 6.14795C4.17515 6.14795 4.5278 6.32651 4.74979 6.62882L4.79186 6.68613C5.01379 6.98837 5.09655 7.3708 5.01943 7.73776L4.99345 7.86138Z" fill="#C2CCDE" fill-opacity="0.25"/>
<path d="M1.6001 11.2267C1.6001 11.4329 1.76725 11.6001 1.97343 11.6001H4.26223C4.40939 10.9462 4.80977 10.3747 5.37511 10.0131C5.27336 9.9405 5.1614 9.88 5.0409 9.83402L4.95653 9.80182C4.21177 9.51761 3.38843 9.51761 2.64366 9.80182L2.55929 9.83402C1.9817 10.0544 1.6001 10.6085 1.6001 11.2267Z" fill="#C2CCDE" fill-opacity="0.25"/>
<path d="M14.0268 11.6001H11.738C11.5908 10.9463 11.1905 10.3747 10.6251 10.0131C10.7269 9.94053 10.8388 9.88004 10.9593 9.83406L11.0437 9.80186C11.7884 9.51765 12.6118 9.51765 13.3565 9.80186L13.4409 9.83406C14.0185 10.0545 14.4001 10.6085 14.4001 11.2268C14.4001 11.433 14.233 11.6001 14.0268 11.6001Z" fill="#C2CCDE" fill-opacity="0.25"/>
<path d="M11.0067 7.86142C11.0817 8.21797 11.3121 8.52233 11.6349 8.69118C11.989 8.87634 12.4112 8.87634 12.7652 8.69118C13.0881 8.52233 13.3185 8.21797 13.3935 7.86142L13.4194 7.7378C13.4966 7.37085 13.4138 6.98841 13.1919 6.68617L13.1498 6.62886C12.9278 6.32655 12.5752 6.14799 12.2001 6.14799C11.825 6.14799 11.4724 6.32655 11.2504 6.62886L11.2083 6.68617C10.9864 6.98841 10.9036 7.37085 10.9808 7.7378L11.0067 7.86142Z" fill="#C2CCDE" fill-opacity="0.25"/>
<path d="M11.1601 12.8001H4.8401C4.48664 12.8001 4.2001 12.5136 4.2001 12.1601C4.2001 11.1008 4.85536 10.1519 5.846 9.77672L6.01231 9.71373C7.29311 9.22864 8.70709 9.22864 9.98788 9.71373L10.1542 9.77672C11.1448 10.1519 11.8001 11.1008 11.8001 12.1601C11.8001 12.5136 11.5136 12.8001 11.1601 12.8001Z" fill="#C2CCDE" fill-opacity="0.25"/>
<path d="M7.02836 7.81568C7.63759 8.13192 8.3626 8.13192 8.97183 7.81568C9.53217 7.52482 9.93275 6.99824 10.0635 6.3806L10.1045 6.18729C10.2387 5.55333 10.0949 4.89224 9.70952 4.3713L9.64346 4.28201C9.25797 3.76097 8.64823 3.45361 8.0001 3.45361C7.35196 3.45361 6.74222 3.76097 6.35674 4.28201L6.29068 4.3713C5.90526 4.89224 5.76149 5.55333 5.89573 6.18729L5.93666 6.3806C6.06744 6.99824 6.46802 7.52482 7.02836 7.81568Z" fill="#C2CCDE" fill-opacity="0.25"/>
<path d="M4.99345 7.86138C4.91852 8.21792 4.68809 8.52229 4.36525 8.69114C4.01123 8.8763 3.58897 8.8763 3.23495 8.69114C2.9121 8.52229 2.68167 8.21792 2.60674 7.86138L2.58076 7.73776C2.50364 7.3708 2.5864 6.98837 2.80833 6.68613L2.85041 6.62882C3.07239 6.32651 3.42504 6.14795 3.8001 6.14795C4.17515 6.14795 4.5278 6.32651 4.74979 6.62882L4.79186 6.68613C5.01379 6.98837 5.09655 7.3708 5.01943 7.73776L4.99345 7.86138Z" stroke="#414141" stroke-linecap="round" stroke-linejoin="round"/>
<path d="M1.6001 11.2267C1.6001 11.4329 1.76725 11.6001 1.97343 11.6001H4.26223C4.40939 10.9462 4.80977 10.3747 5.37511 10.0131C5.27336 9.9405 5.1614 9.88 5.0409 9.83402L4.95653 9.80182C4.21177 9.51761 3.38843 9.51761 2.64366 9.80182L2.55929 9.83402C1.9817 10.0544 1.6001 10.6085 1.6001 11.2267Z" stroke="#414141" stroke-linecap="round" stroke-linejoin="round"/>
<path d="M14.0268 11.6001H11.738C11.5908 10.9463 11.1905 10.3747 10.6251 10.0131C10.7269 9.94053 10.8388 9.88004 10.9593 9.83406L11.0437 9.80186C11.7884 9.51765 12.6118 9.51765 13.3565 9.80186L13.4409 9.83406C14.0185 10.0545 14.4001 10.6085 14.4001 11.2268C14.4001 11.433 14.233 11.6001 14.0268 11.6001Z" stroke="#414141" stroke-linecap="round" stroke-linejoin="round"/>
<path d="M11.0067 7.86142C11.0817 8.21797 11.3121 8.52233 11.6349 8.69118C11.989 8.87634 12.4112 8.87634 12.7652 8.69118C13.0881 8.52233 13.3185 8.21797 13.3935 7.86142L13.4194 7.7378C13.4966 7.37085 13.4138 6.98841 13.1919 6.68617L13.1498 6.62886C12.9278 6.32655 12.5752 6.14799 12.2001 6.14799C11.825 6.14799 11.4724 6.32655 11.2504 6.62886L11.2083 6.68617C10.9864 6.98841 10.9036 7.37085 10.9808 7.7378L11.0067 7.86142Z" stroke="#414141" stroke-linecap="round" stroke-linejoin="round"/>
<path d="M11.1601 12.8001H4.8401C4.48664 12.8001 4.2001 12.5136 4.2001 12.1601C4.2001 11.1008 4.85536 10.1519 5.846 9.77672L6.01231 9.71373C7.29311 9.22864 8.70709 9.22864 9.98788 9.71373L10.1542 9.77672C11.1448 10.1519 11.8001 11.1008 11.8001 12.1601C11.8001 12.5136 11.5136 12.8001 11.1601 12.8001Z" stroke="#414141" stroke-linecap="round" stroke-linejoin="round"/>
<path d="M7.02836 7.81568C7.63759 8.13192 8.3626 8.13192 8.97183 7.81568C9.53217 7.52482 9.93275 6.99824 10.0635 6.3806L10.1045 6.18729C10.2387 5.55333 10.0949 4.89224 9.70952 4.3713L9.64346 4.28201C9.25797 3.76097 8.64823 3.45361 8.0001 3.45361C7.35196 3.45361 6.74222 3.76097 6.35674 4.28201L6.29068 4.3713C5.90526 4.89224 5.76149 5.55333 5.89573 6.18729L5.93666 6.3806C6.06744 6.99824 6.46802 7.52482 7.02836 7.81568Z" stroke="#414141" stroke-linecap="round" stroke-linejoin="round"/>
</svg>
