<svg width="86" height="86" viewBox="0 0 86 86" fill="none" xmlns="http://www.w3.org/2000/svg">
<path d="M0 43C0 66.7482 19.2518 86 43 86C66.7482 86 86 66.7482 86 43C86 19.2518 66.7482 0 43 0C19.2518 0 0 19.2518 0 43ZM82.3677 43C82.3677 64.7422 64.7422 82.3677 43 82.3677C21.2578 82.3677 3.63226 64.7422 3.63226 43C3.63226 21.2578 21.2578 3.63227 43 3.63227C64.7422 3.63227 82.3677 21.2578 82.3677 43Z" fill="#08B783"/>
<circle cx="43" cy="43" r="35" fill="#08B783"/>
<path d="M42.56 40.1C42.2 39.4067 41.7 38.8867 41.06 38.54C40.42 38.18 39.68 38 38.84 38C37.92 38 37.1 38.2067 36.38 38.62C35.66 39.0333 35.0933 39.62 34.68 40.38C34.28 41.14 34.08 42.02 34.08 43.02C34.08 44.02 34.28 44.9067 34.68 45.68C35.0933 46.44 35.66 47.0267 36.38 47.44C37.1 47.8533 37.92 48.06 38.84 48.06C40.08 48.06 41.0867 47.7133 41.86 47.02C42.6333 46.3267 43.1067 45.3867 43.28 44.2H38.06V42.38H45.72V44.16C45.5733 45.24 45.1867 46.2333 44.56 47.14C43.9467 48.0467 43.14 48.7733 42.14 49.32C41.1533 49.8533 40.0533 50.12 38.84 50.12C37.5333 50.12 36.34 49.82 35.26 49.22C34.18 48.6067 33.32 47.76 32.68 46.68C32.0533 45.6 31.74 44.38 31.74 43.02C31.74 41.66 32.0533 40.44 32.68 39.36C33.32 38.28 34.18 37.44 35.26 36.84C36.3533 36.2267 37.5467 35.92 38.84 35.92C40.32 35.92 41.6333 36.2867 42.78 37.02C43.94 37.74 44.78 38.7667 45.3 40.1H42.56ZM53.0488 50.18C52.0088 50.18 51.0688 49.9467 50.2288 49.48C49.3888 49 48.7288 48.3333 48.2488 47.48C47.7688 46.6133 47.5288 45.6133 47.5288 44.48C47.5288 43.36 47.7754 42.3667 48.2688 41.5C48.7621 40.6333 49.4354 39.9667 50.2888 39.5C51.1421 39.0333 52.0954 38.8 53.1488 38.8C54.2021 38.8 55.1554 39.0333 56.0088 39.5C56.8621 39.9667 57.5354 40.6333 58.0288 41.5C58.5221 42.3667 58.7688 43.36 58.7688 44.48C58.7688 45.6 58.5154 46.5933 58.0088 47.46C57.5021 48.3267 56.8088 49 55.9288 49.48C55.0621 49.9467 54.1021 50.18 53.0488 50.18ZM53.0488 48.2C53.6354 48.2 54.1821 48.06 54.6888 47.78C55.2088 47.5 55.6288 47.08 55.9488 46.52C56.2688 45.96 56.4288 45.28 56.4288 44.48C56.4288 43.68 56.2754 43.0067 55.9688 42.46C55.6621 41.9 55.2554 41.48 54.7488 41.2C54.2421 40.92 53.6954 40.78 53.1088 40.78C52.5221 40.78 51.9754 40.92 51.4688 41.2C50.9754 41.48 50.5821 41.9 50.2888 42.46C49.9954 43.0067 49.8488 43.68 49.8488 44.48C49.8488 45.6667 50.1488 46.5867 50.7488 47.24C51.3621 47.88 52.1288 48.2 53.0488 48.2Z" fill="#FFF8F8"/>
</svg>
