<svg width="96" height="99" viewBox="0 0 96 99" fill="none" xmlns="http://www.w3.org/2000/svg">
<path d="M42.8842 3.04592C46.0365 1.16904 49.9635 1.16905 53.1158 3.04592L84.685 21.842C87.7136 23.6452 89.5692 26.9096 89.5692 30.4343V68.5657C89.5692 72.0904 87.7136 75.3548 84.685 77.158L53.1158 95.9541C49.9635 97.831 46.0365 97.831 42.8842 95.9541L11.315 77.158C8.28639 75.3548 6.43078 72.0904 6.43078 68.5657V30.4343C6.43078 26.9096 8.28639 23.6452 11.315 21.842L42.8842 3.04592Z" fill="#08B783"/>
<path d="M34 41V59C34 60.6569 35.3431 62 37 62H59C60.6569 62 62 60.6569 62 59V45C62 43.3431 60.6569 42 59 42H58V41C58 39.3431 56.6569 38 55 38H37C35.3431 38 34 39.3431 34 41Z" fill="#C2CCDE" fill-opacity="0.25"/>
<path d="M54 51.5C54 50.3954 54.8954 49.5 56 49.5C57.1046 49.5 58 50.3954 58 51.5C58 52.6046 57.1046 53.5 56 53.5C54.8954 53.5 54 52.6046 54 51.5Z" fill="#C2CCDE" fill-opacity="0.25"/>
<path d="M58 42V41C58 39.3431 56.6569 38 55 38H37C35.3431 38 34 39.3431 34 41V59C34 60.6569 35.3431 62 37 62H59C60.6569 62 62 60.6569 62 59V45C62 43.3431 60.6569 42 59 42H58ZM58 42H39.25M56 53.5C54.8954 53.5 54 52.6046 54 51.5C54 50.3954 54.8954 49.5 56 49.5C57.1046 49.5 58 50.3954 58 51.5C58 52.6046 57.1046 53.5 56 53.5Z" stroke="white" stroke-linecap="round" stroke-linejoin="round"/>
</svg>
